<svg width="20" height="25" viewBox="0 0 20 25" fill="none" xmlns="http://www.w3.org/2000/svg">
<path d="M19.4876 19.0846C19.1311 19.9082 18.7091 20.6664 18.2202 21.3634C17.5537 22.3137 17.008 22.9714 16.5874 23.3367C15.9355 23.9362 15.237 24.2433 14.489 24.2607C13.9521 24.2607 13.3045 24.1079 12.5507 23.798C11.7944 23.4895 11.0994 23.3367 10.4639 23.3367C9.79745 23.3367 9.08266 23.4895 8.3181 23.798C7.55237 24.1079 6.93551 24.2695 6.46388 24.2855C5.74661 24.316 5.03167 24.0003 4.31803 23.3367C3.86256 22.9394 3.29285 22.2584 2.61035 21.2936C1.8781 20.2633 1.27608 19.0686 0.804449 17.7065C0.299348 16.2353 0.0461426 14.8107 0.0461426 13.4314C0.0461426 11.8515 0.387533 10.4888 1.07133 9.34695C1.60874 8.42974 2.32368 7.70621 3.21848 7.17506C4.11329 6.64391 5.08012 6.37325 6.12132 6.35593C6.69103 6.35593 7.43814 6.53215 8.36655 6.87849C9.29235 7.226 9.8868 7.40222 10.1474 7.40222C10.3423 7.40222 11.0027 7.19616 12.1221 6.78536C13.1808 6.40439 14.0743 6.24664 14.8063 6.30878C16.7897 6.46885 18.2798 7.25073 19.2708 8.65937C17.4969 9.73418 16.6194 11.2396 16.6369 13.1708C16.6529 14.675 17.1986 15.9268 18.2711 16.9207C18.7571 17.382 19.2999 17.7385 19.9038 17.9917C19.7729 18.3715 19.6346 18.7353 19.4876 19.0846V19.0846ZM14.9387 1.18414C14.9387 2.36316 14.5079 3.46401 13.6494 4.48294C12.6133 5.69425 11.3601 6.3942 10.001 6.28375C9.98372 6.14231 9.97368 5.99344 9.97368 5.837C9.97368 4.70515 10.4664 3.49384 11.3414 2.50343C11.7783 2.00197 12.3339 1.58501 13.0076 1.25239C13.6799 0.924738 14.3159 0.743539 14.9139 0.712509C14.9314 0.870125 14.9387 1.02775 14.9387 1.18413V1.18414Z" fill="black"/>
</svg>
