<svg width="29" height="24" viewBox="0 0 29 24" fill="none" xmlns="http://www.w3.org/2000/svg">
<path d="M9.12074 23.7875C20.0636 23.7875 26.0479 14.7184 26.0479 6.85404C26.0479 6.59649 26.0426 6.34011 26.031 6.08479C27.1954 5.24194 28.2004 4.19835 28.9987 3.00295C27.9326 3.47704 26.7855 3.79613 25.5822 3.94C26.8105 3.20322 27.7534 2.03761 28.1983 0.648219C27.0305 1.34126 25.7529 1.82982 24.4206 2.09284C23.3349 0.936011 21.7894 0.212494 20.0779 0.212494C16.7925 0.212494 14.1283 2.87777 14.1283 6.16312C14.1283 6.6302 14.1806 7.08437 14.2827 7.52015C9.3381 7.27126 4.95363 4.90303 2.01931 1.30201C1.49081 2.21026 1.21282 3.2425 1.21375 4.29333C1.21375 6.35814 2.26401 8.1809 3.86122 9.24732C2.91645 9.21845 1.99243 8.96317 1.16683 8.50294C1.16595 8.52793 1.16595 8.55227 1.16595 8.57897C1.16595 11.4612 3.21662 13.8677 5.93883 14.413C5.42756 14.5522 4.89999 14.6227 4.37009 14.6224C3.98741 14.6224 3.61445 14.5847 3.25198 14.5151C4.00939 16.8798 6.20564 18.6006 8.80955 18.6487C6.77332 20.2452 4.2083 21.1962 1.4205 21.1962C0.94626 21.1966 0.472407 21.1691 0.00140381 21.1137C2.63438 22.802 5.76078 23.7871 9.12104 23.7871" fill="#1D9BF0"/>
</svg>
