<svg width="24" height="24" viewBox="0 0 24 24" fill="none" xmlns="http://www.w3.org/2000/svg">
<path fill-rule="evenodd" clip-rule="evenodd" d="M23.3161 12.2679C23.3161 11.432 23.241 10.6283 23.1017 9.8568H12.0001V14.4164H18.3439C18.0706 15.8899 17.2401 17.1383 15.9917 17.9741V20.9317H19.8012C22.0302 18.8796 23.3161 15.8577 23.3161 12.2679Z" fill="#4285F4"/>
<path fill-rule="evenodd" clip-rule="evenodd" d="M11.9999 23.7873C15.1826 23.7873 17.8508 22.7318 19.8011 20.9315L15.9916 17.9739C14.9361 18.6812 13.5859 19.0991 11.9999 19.0991C8.92982 19.0991 6.33121 17.0256 5.40428 14.2394H1.46619V17.2935C3.40577 21.1458 7.39208 23.7873 11.9999 23.7873Z" fill="#34A853"/>
<path fill-rule="evenodd" clip-rule="evenodd" d="M5.40438 14.2397C5.16863 13.5324 5.03468 12.777 5.03468 12C5.03468 11.2231 5.16863 10.4677 5.40438 9.76042V6.70639H1.46629C0.66795 8.2977 0.212524 10.098 0.212524 12C0.212524 13.9021 0.66795 15.7024 1.46629 17.2937L5.40438 14.2397Z" fill="#FBBC05"/>
<path fill-rule="evenodd" clip-rule="evenodd" d="M11.9999 4.9007C13.7305 4.9007 15.2844 5.49544 16.506 6.66347L19.8868 3.2826C17.8455 1.38053 15.1772 0.212494 11.9999 0.212494C7.39208 0.212494 3.40577 2.85397 1.46619 6.70633L5.40428 9.76037C6.33121 6.97423 8.92982 4.9007 11.9999 4.9007Z" fill="#EA4335"/>
</svg>
